<mxfile host="app.diagrams.net" modified="2024-02-28T11:16:51.535Z" agent="Mozilla/5.0 (Windows NT 10.0; Win64; x64; rv:109.0) Gecko/20100101 Firefox/115.0" etag="DWPXEW0j119KnmcKRrXw" version="23.1.7" type="github">
  <diagram name="Page-1" id="1Q_z-b2mWmNZc49uN2Zr">
    <mxGraphModel dx="1354" dy="581" grid="0" gridSize="10" guides="1" tooltips="1" connect="1" arrows="1" fold="1" page="1" pageScale="1" pageWidth="1169" pageHeight="827" background="none" math="0" shadow="0">
      <root>
        <mxCell id="0" />
        <object label="SISPEA" id="UiWry4mSf7AiP79Xs2rW-38">
          <mxCell style="" parent="0" />
        </object>
        <mxCell id="UiWry4mSf7AiP79Xs2rW-39" value="&lt;font style=&quot;font-size: 14px;&quot;&gt;&lt;b&gt;aep_coll&lt;/b&gt; &lt;/font&gt;(polygones)" style="swimlane;fontStyle=0;childLayout=stackLayout;horizontal=1;startSize=26;horizontalStack=0;resizeParent=1;resizeParentMax=0;resizeLast=0;collapsible=1;marginBottom=0;whiteSpace=wrap;html=1;labelBackgroundColor=none;rounded=0;shadow=0;glass=0;swimlaneLine=1;fillColor=#dae8fc;strokeColor=#6c8ebf;" parent="UiWry4mSf7AiP79Xs2rW-38" vertex="1">
          <mxGeometry x="69.00111111111111" y="124.9978672985782" width="168.88888888888889" height="70.36018957345972" as="geometry" />
        </mxCell>
        <mxCell id="UiWry4mSf7AiP79Xs2rW-40" value="c_sispea" style="text;align=left;verticalAlign=top;spacingLeft=4;spacingRight=4;overflow=hidden;rotatable=0;points=[[0,0.5],[1,0.5]];portConstraint=eastwest;whiteSpace=wrap;html=1;labelBackgroundColor=none;" parent="UiWry4mSf7AiP79Xs2rW-39" vertex="1">
          <mxGeometry y="26" width="168.88888888888889" height="22.18009478672986" as="geometry" />
        </mxCell>
        <mxCell id="UiWry4mSf7AiP79Xs2rW-41" value="c_siren" style="text;align=left;verticalAlign=top;spacingLeft=4;spacingRight=4;overflow=hidden;rotatable=0;points=[[0,0.5],[1,0.5]];portConstraint=eastwest;whiteSpace=wrap;html=1;labelBackgroundColor=none;" parent="UiWry4mSf7AiP79Xs2rW-39" vertex="1">
          <mxGeometry y="48.18009478672986" width="168.88888888888889" height="22.18009478672986" as="geometry" />
        </mxCell>
        <mxCell id="UiWry4mSf7AiP79Xs2rW-43" value="&lt;h1&gt;&lt;b&gt;&lt;font style=&quot;font-size: 24px;&quot;&gt;SISPEA&lt;/font&gt;&lt;/b&gt;&lt;/h1&gt;" style="shape=umlFrame;whiteSpace=wrap;html=1;pointerEvents=0;fillColor=#dae8fc;strokeColor=#6c8ebf;shadow=0;width=126;height=36;" parent="UiWry4mSf7AiP79Xs2rW-38" vertex="1">
          <mxGeometry x="44" y="50" width="697" height="244" as="geometry" />
        </mxCell>
        <mxCell id="UiWry4mSf7AiP79Xs2rW-44" value="&lt;b&gt;&lt;font style=&quot;font-size: 14px;&quot;&gt;aep_eg&lt;/font&gt;&lt;/b&gt; (polygones)" style="swimlane;fontStyle=0;childLayout=stackLayout;horizontal=1;startSize=26;fillColor=#dae8fc;horizontalStack=0;resizeParent=1;resizeParentMax=0;resizeLast=0;collapsible=1;marginBottom=0;whiteSpace=wrap;html=1;strokeColor=#6c8ebf;rounded=0;" parent="UiWry4mSf7AiP79Xs2rW-38" vertex="1">
          <mxGeometry x="297.00444444444446" y="124.9978672985782" width="168.88888888888889" height="92.54028436018959" as="geometry" />
        </mxCell>
        <mxCell id="UiWry4mSf7AiP79Xs2rW-45" value="c_sispea" style="text;strokeColor=none;fillColor=none;align=left;verticalAlign=top;spacingLeft=4;spacingRight=4;overflow=hidden;rotatable=0;points=[[0,0.5],[1,0.5]];portConstraint=eastwest;whiteSpace=wrap;html=1;" parent="UiWry4mSf7AiP79Xs2rW-44" vertex="1">
          <mxGeometry y="26" width="168.88888888888889" height="22.18009478672986" as="geometry" />
        </mxCell>
        <mxCell id="UiWry4mSf7AiP79Xs2rW-46" value="c_uge" style="text;strokeColor=none;fillColor=none;align=left;verticalAlign=top;spacingLeft=4;spacingRight=4;overflow=hidden;rotatable=0;points=[[0,0.5],[1,0.5]];portConstraint=eastwest;whiteSpace=wrap;html=1;" parent="UiWry4mSf7AiP79Xs2rW-44" vertex="1">
          <mxGeometry y="48.18009478672986" width="168.88888888888889" height="22.18009478672986" as="geometry" />
        </mxCell>
        <mxCell id="UiWry4mSf7AiP79Xs2rW-47" value="c_sispea_coll" style="text;strokeColor=none;fillColor=none;align=left;verticalAlign=top;spacingLeft=4;spacingRight=4;overflow=hidden;rotatable=0;points=[[0,0.5],[1,0.5]];portConstraint=eastwest;whiteSpace=wrap;html=1;" parent="UiWry4mSf7AiP79Xs2rW-44" vertex="1">
          <mxGeometry y="70.36018957345972" width="168.88888888888889" height="22.18009478672986" as="geometry" />
        </mxCell>
        <mxCell id="UiWry4mSf7AiP79Xs2rW-48" value="&lt;b style=&quot;&quot;&gt;&lt;font style=&quot;font-size: 14px;&quot;&gt;aep_ouv&lt;/font&gt;&lt;/b&gt;&lt;span style=&quot;&quot;&gt;&lt;font style=&quot;font-size: 12px;&quot;&gt; (table)&lt;font style=&quot;font-size: 12px;&quot;&gt;&lt;br&gt;&lt;/font&gt;&lt;/font&gt;&lt;/span&gt;" style="swimlane;fontStyle=0;childLayout=stackLayout;horizontal=1;startSize=26;fillColor=#dae8fc;horizontalStack=0;resizeParent=1;resizeParentMax=0;resizeLast=0;collapsible=1;marginBottom=0;whiteSpace=wrap;html=1;strokeColor=#6c8ebf;rounded=0;swimlaneLine=1;strokeWidth=1;" parent="UiWry4mSf7AiP79Xs2rW-38" vertex="1">
          <mxGeometry x="525" y="113" width="168.89" height="126.66350710900474" as="geometry">
            <mxRectangle x="480" y="158" width="130" height="30" as="alternateBounds" />
          </mxGeometry>
        </mxCell>
        <mxCell id="UiWry4mSf7AiP79Xs2rW-49" value="c_sispea" style="text;strokeColor=none;fillColor=none;align=left;verticalAlign=top;spacingLeft=4;spacingRight=4;overflow=hidden;rotatable=0;points=[[0,0.5],[1,0.5]];portConstraint=eastwest;whiteSpace=wrap;html=1;" parent="UiWry4mSf7AiP79Xs2rW-48" vertex="1">
          <mxGeometry y="26" width="168.89" height="22.18009478672986" as="geometry" />
        </mxCell>
        <mxCell id="UiWry4mSf7AiP79Xs2rW-50" value="c_siseaux" style="text;strokeColor=none;fillColor=none;align=left;verticalAlign=top;spacingLeft=4;spacingRight=4;overflow=hidden;rotatable=0;points=[[0,0.5],[1,0.5]];portConstraint=eastwest;whiteSpace=wrap;html=1;" parent="UiWry4mSf7AiP79Xs2rW-48" vertex="1">
          <mxGeometry y="48.18009478672986" width="168.89" height="22.18009478672986" as="geometry" />
        </mxCell>
        <mxCell id="UiWry4mSf7AiP79Xs2rW-51" value="c_sispea_coll" style="text;strokeColor=none;fillColor=none;align=left;verticalAlign=top;spacingLeft=4;spacingRight=4;overflow=hidden;rotatable=0;points=[[0,0.5],[1,0.5]];portConstraint=eastwest;whiteSpace=wrap;html=1;" parent="UiWry4mSf7AiP79Xs2rW-48" vertex="1">
          <mxGeometry y="70.36018957345972" width="168.89" height="18.767772511848342" as="geometry" />
        </mxCell>
        <mxCell id="UiWry4mSf7AiP79Xs2rW-53" value="&lt;div&gt;c_sispea_eg&lt;/div&gt;" style="text;strokeColor=none;fillColor=none;align=left;verticalAlign=top;spacingLeft=4;spacingRight=4;overflow=hidden;rotatable=0;points=[[0,0.5],[1,0.5]];portConstraint=eastwest;whiteSpace=wrap;html=1;" parent="UiWry4mSf7AiP79Xs2rW-48" vertex="1">
          <mxGeometry y="89.12796208530807" width="168.89" height="18.767772511848342" as="geometry" />
        </mxCell>
        <mxCell id="UiWry4mSf7AiP79Xs2rW-52" value="&lt;div&gt;c_uge&lt;/div&gt;" style="text;strokeColor=none;fillColor=none;align=left;verticalAlign=top;spacingLeft=4;spacingRight=4;overflow=hidden;rotatable=0;points=[[0,0.5],[1,0.5]];portConstraint=eastwest;whiteSpace=wrap;html=1;" parent="UiWry4mSf7AiP79Xs2rW-48" vertex="1">
          <mxGeometry y="107.8957345971564" width="168.89" height="18.767772511848342" as="geometry" />
        </mxCell>
        <mxCell id="UiWry4mSf7AiP79Xs2rW-54" value="" style="edgeStyle=entityRelationEdgeStyle;fontSize=12;html=1;endArrow=ERoneToMany;rounded=0;" parent="UiWry4mSf7AiP79Xs2rW-38" source="UiWry4mSf7AiP79Xs2rW-46" target="UiWry4mSf7AiP79Xs2rW-52" edge="1">
          <mxGeometry width="100" height="100" relative="1" as="geometry">
            <mxPoint x="430" y="152.36966824644549" as="sourcePoint" />
            <mxPoint x="535.5555555555555" y="67.06161137440759" as="targetPoint" />
          </mxGeometry>
        </mxCell>
        <mxCell id="UiWry4mSf7AiP79Xs2rW-55" value="" style="edgeStyle=entityRelationEdgeStyle;fontSize=12;html=1;endArrow=ERoneToMany;rounded=0;exitX=1;exitY=0.5;exitDx=0;exitDy=0;entryX=0;entryY=0.5;entryDx=0;entryDy=0;" parent="UiWry4mSf7AiP79Xs2rW-38" source="UiWry4mSf7AiP79Xs2rW-40" target="UiWry4mSf7AiP79Xs2rW-47" edge="1">
          <mxGeometry width="100" height="100" relative="1" as="geometry">
            <mxPoint x="240" y="90.9478672985782" as="sourcePoint" />
            <mxPoint x="345.55555555555554" y="5.639810426540279" as="targetPoint" />
            <Array as="points">
              <mxPoint x="282.22222222222223" y="99.478672985782" />
            </Array>
          </mxGeometry>
        </mxCell>
        <mxCell id="UiWry4mSf7AiP79Xs2rW-56" value="" style="edgeStyle=entityRelationEdgeStyle;fontSize=12;html=1;endArrow=ERoneToMany;rounded=0;" parent="UiWry4mSf7AiP79Xs2rW-38" source="UiWry4mSf7AiP79Xs2rW-45" target="UiWry4mSf7AiP79Xs2rW-53" edge="1">
          <mxGeometry width="100" height="100" relative="1" as="geometry">
            <mxPoint x="461.6666666666667" y="143.8388625592417" as="sourcePoint" />
            <mxPoint x="498.61111111111114" y="212.93838862559244" as="targetPoint" />
            <Array as="points">
              <mxPoint x="451.11111111111114" y="220.61611374407585" />
              <mxPoint x="503.8888888888889" y="271.8009478672986" />
              <mxPoint x="482.77777777777777" y="212.08530805687204" />
            </Array>
          </mxGeometry>
        </mxCell>
        <mxCell id="q0eAbEq45X-YDv4spNDz-2" value="" style="edgeStyle=entityRelationEdgeStyle;fontSize=12;html=1;endArrow=ERmandOne;startArrow=ERmandOne;rounded=0;" edge="1" parent="UiWry4mSf7AiP79Xs2rW-38" source="yYNXpB2N-dPXlD8TsNwt-5" target="2uLfHWaX_J8Jc8troCcb-1">
          <mxGeometry width="100" height="100" relative="1" as="geometry">
            <mxPoint x="610" y="427" as="sourcePoint" />
            <mxPoint x="710" y="327" as="targetPoint" />
            <Array as="points">
              <mxPoint x="791" y="200" />
            </Array>
          </mxGeometry>
        </mxCell>
        <mxCell id="q0eAbEq45X-YDv4spNDz-5" value="&lt;h2&gt;&lt;font style=&quot;font-size: 24px;&quot;&gt;&lt;b&gt;Dep. Cher&lt;/b&gt;&lt;/font&gt;&lt;/h2&gt;" style="shape=umlFrame;whiteSpace=wrap;html=1;pointerEvents=0;width=158;height=45;fillColor=#00CC00;strokeColor=#00CC00;" vertex="1" parent="UiWry4mSf7AiP79Xs2rW-38">
          <mxGeometry x="49" y="666" width="991" height="344" as="geometry" />
        </mxCell>
        <mxCell id="q0eAbEq45X-YDv4spNDz-6" value="&lt;font style=&quot;font-size: 14px;&quot;&gt;aep_reseau_distrib&lt;/font&gt; &lt;span style=&quot;font-weight: normal;&quot;&gt;(lignes)&lt;/span&gt;" style="swimlane;fontStyle=1;align=center;verticalAlign=top;childLayout=stackLayout;horizontal=1;startSize=26;horizontalStack=0;resizeParent=1;resizeParentMax=0;resizeLast=0;collapsible=1;marginBottom=0;whiteSpace=wrap;html=1;" vertex="1" parent="UiWry4mSf7AiP79Xs2rW-38">
          <mxGeometry x="99" y="728" width="208" height="86" as="geometry" />
        </mxCell>
        <mxCell id="q0eAbEq45X-YDv4spNDz-7" value="c_reseau" style="text;strokeColor=none;fillColor=none;align=left;verticalAlign=top;spacingLeft=4;spacingRight=4;overflow=hidden;rotatable=0;points=[[0,0.5],[1,0.5]];portConstraint=eastwest;whiteSpace=wrap;html=1;" vertex="1" parent="q0eAbEq45X-YDv4spNDz-6">
          <mxGeometry y="26" width="208" height="26" as="geometry" />
        </mxCell>
        <mxCell id="q0eAbEq45X-YDv4spNDz-8" value="" style="line;strokeWidth=1;fillColor=none;align=left;verticalAlign=middle;spacingTop=-1;spacingLeft=3;spacingRight=3;rotatable=0;labelPosition=right;points=[];portConstraint=eastwest;strokeColor=inherit;" vertex="1" parent="q0eAbEq45X-YDv4spNDz-6">
          <mxGeometry y="52" width="208" height="8" as="geometry" />
        </mxCell>
        <mxCell id="q0eAbEq45X-YDv4spNDz-9" value="c_udi" style="text;strokeColor=none;fillColor=none;align=left;verticalAlign=top;spacingLeft=4;spacingRight=4;overflow=hidden;rotatable=0;points=[[0,0.5],[1,0.5]];portConstraint=eastwest;whiteSpace=wrap;html=1;" vertex="1" parent="q0eAbEq45X-YDv4spNDz-6">
          <mxGeometry y="60" width="208" height="26" as="geometry" />
        </mxCell>
        <mxCell id="q0eAbEq45X-YDv4spNDz-10" value="&lt;font style=&quot;font-size: 14px;&quot;&gt;aep_reseau_prod &lt;/font&gt;&lt;font style=&quot;font-size: 12px;&quot;&gt;&lt;span style=&quot;font-weight: normal;&quot;&gt;(lignes)&lt;/span&gt;&lt;font&gt;&lt;br&gt;&lt;/font&gt;&lt;/font&gt;" style="swimlane;fontStyle=1;align=center;verticalAlign=top;childLayout=stackLayout;horizontal=1;startSize=26;horizontalStack=0;resizeParent=1;resizeParentMax=0;resizeLast=0;collapsible=1;marginBottom=0;whiteSpace=wrap;html=1;" vertex="1" parent="UiWry4mSf7AiP79Xs2rW-38">
          <mxGeometry x="426" y="728" width="205" height="86" as="geometry" />
        </mxCell>
        <mxCell id="q0eAbEq45X-YDv4spNDz-11" value="c_reseau" style="text;strokeColor=none;fillColor=none;align=left;verticalAlign=top;spacingLeft=4;spacingRight=4;overflow=hidden;rotatable=0;points=[[0,0.5],[1,0.5]];portConstraint=eastwest;whiteSpace=wrap;html=1;" vertex="1" parent="q0eAbEq45X-YDv4spNDz-10">
          <mxGeometry y="26" width="205" height="26" as="geometry" />
        </mxCell>
        <mxCell id="q0eAbEq45X-YDv4spNDz-12" value="" style="line;strokeWidth=1;fillColor=none;align=left;verticalAlign=middle;spacingTop=-1;spacingLeft=3;spacingRight=3;rotatable=0;labelPosition=right;points=[];portConstraint=eastwest;strokeColor=inherit;" vertex="1" parent="q0eAbEq45X-YDv4spNDz-10">
          <mxGeometry y="52" width="205" height="8" as="geometry" />
        </mxCell>
        <mxCell id="q0eAbEq45X-YDv4spNDz-13" value="c_sispea_coll" style="text;strokeColor=none;fillColor=none;align=left;verticalAlign=top;spacingLeft=4;spacingRight=4;overflow=hidden;rotatable=0;points=[[0,0.5],[1,0.5]];portConstraint=eastwest;whiteSpace=wrap;html=1;" vertex="1" parent="q0eAbEq45X-YDv4spNDz-10">
          <mxGeometry y="60" width="205" height="26" as="geometry" />
        </mxCell>
        <mxCell id="q0eAbEq45X-YDv4spNDz-14" value="&lt;font style=&quot;font-size: 14px;&quot;&gt;aep_reservoir &lt;/font&gt;&lt;font style=&quot;font-size: 12px; font-weight: normal;&quot;&gt;(points)&lt;font&gt;&lt;br&gt;&lt;/font&gt;&lt;/font&gt;" style="swimlane;fontStyle=1;align=center;verticalAlign=top;childLayout=stackLayout;horizontal=1;startSize=26;horizontalStack=0;resizeParent=1;resizeParentMax=0;resizeLast=0;collapsible=1;marginBottom=0;whiteSpace=wrap;html=1;" vertex="1" parent="UiWry4mSf7AiP79Xs2rW-38">
          <mxGeometry x="643" y="882" width="185" height="86" as="geometry" />
        </mxCell>
        <mxCell id="q0eAbEq45X-YDv4spNDz-15" value="c_reservoir" style="text;strokeColor=none;fillColor=none;align=left;verticalAlign=top;spacingLeft=4;spacingRight=4;overflow=hidden;rotatable=0;points=[[0,0.5],[1,0.5]];portConstraint=eastwest;whiteSpace=wrap;html=1;" vertex="1" parent="q0eAbEq45X-YDv4spNDz-14">
          <mxGeometry y="26" width="185" height="26" as="geometry" />
        </mxCell>
        <mxCell id="q0eAbEq45X-YDv4spNDz-16" value="" style="line;strokeWidth=1;fillColor=none;align=left;verticalAlign=middle;spacingTop=-1;spacingLeft=3;spacingRight=3;rotatable=0;labelPosition=right;points=[];portConstraint=eastwest;strokeColor=inherit;" vertex="1" parent="q0eAbEq45X-YDv4spNDz-14">
          <mxGeometry y="52" width="185" height="8" as="geometry" />
        </mxCell>
        <mxCell id="q0eAbEq45X-YDv4spNDz-17" value="c_udi" style="text;strokeColor=none;fillColor=none;align=left;verticalAlign=top;spacingLeft=4;spacingRight=4;overflow=hidden;rotatable=0;points=[[0,0.5],[1,0.5]];portConstraint=eastwest;whiteSpace=wrap;html=1;" vertex="1" parent="q0eAbEq45X-YDv4spNDz-14">
          <mxGeometry y="60" width="185" height="26" as="geometry" />
        </mxCell>
        <mxCell id="q0eAbEq45X-YDv4spNDz-19" value="" style="edgeStyle=entityRelationEdgeStyle;fontSize=12;html=1;endArrow=ERoneToMany;rounded=0;entryX=0;entryY=0.5;entryDx=0;entryDy=0;" edge="1" parent="UiWry4mSf7AiP79Xs2rW-38" source="UiWry4mSf7AiP79Xs2rW-45" target="UiWry4mSf7AiP79Xs2rW-80">
          <mxGeometry width="100" height="100" relative="1" as="geometry">
            <mxPoint x="610" y="402" as="sourcePoint" />
            <mxPoint x="710" y="302" as="targetPoint" />
          </mxGeometry>
        </mxCell>
        <mxCell id="q0eAbEq45X-YDv4spNDz-20" value="" style="edgeStyle=entityRelationEdgeStyle;fontSize=12;html=1;endArrow=ERoneToMany;rounded=0;" edge="1" parent="UiWry4mSf7AiP79Xs2rW-38" source="UiWry4mSf7AiP79Xs2rW-40" target="q0eAbEq45X-YDv4spNDz-18">
          <mxGeometry width="100" height="100" relative="1" as="geometry">
            <mxPoint x="610" y="402" as="sourcePoint" />
            <mxPoint x="710" y="302" as="targetPoint" />
          </mxGeometry>
        </mxCell>
        <mxCell id="q0eAbEq45X-YDv4spNDz-21" value="&lt;font style=&quot;font-size: 14px;&quot;&gt;aep_usine&lt;/font&gt; &lt;span style=&quot;font-weight: normal;&quot;&gt;(points)&lt;/span&gt;" style="swimlane;fontStyle=1;align=center;verticalAlign=top;childLayout=stackLayout;horizontal=1;startSize=26;horizontalStack=0;resizeParent=1;resizeParentMax=0;resizeLast=0;collapsible=1;marginBottom=0;whiteSpace=wrap;html=1;" vertex="1" parent="UiWry4mSf7AiP79Xs2rW-38">
          <mxGeometry x="84" y="865" width="181" height="86" as="geometry" />
        </mxCell>
        <mxCell id="q0eAbEq45X-YDv4spNDz-22" value="c_usine" style="text;strokeColor=none;fillColor=none;align=left;verticalAlign=top;spacingLeft=4;spacingRight=4;overflow=hidden;rotatable=0;points=[[0,0.5],[1,0.5]];portConstraint=eastwest;whiteSpace=wrap;html=1;" vertex="1" parent="q0eAbEq45X-YDv4spNDz-21">
          <mxGeometry y="26" width="181" height="26" as="geometry" />
        </mxCell>
        <mxCell id="q0eAbEq45X-YDv4spNDz-23" value="" style="line;strokeWidth=1;fillColor=none;align=left;verticalAlign=middle;spacingTop=-1;spacingLeft=3;spacingRight=3;rotatable=0;labelPosition=right;points=[];portConstraint=eastwest;strokeColor=inherit;" vertex="1" parent="q0eAbEq45X-YDv4spNDz-21">
          <mxGeometry y="52" width="181" height="8" as="geometry" />
        </mxCell>
        <mxCell id="q0eAbEq45X-YDv4spNDz-24" value="c_udi" style="text;strokeColor=none;fillColor=none;align=left;verticalAlign=top;spacingLeft=4;spacingRight=4;overflow=hidden;rotatable=0;points=[[0,0.5],[1,0.5]];portConstraint=eastwest;whiteSpace=wrap;html=1;" vertex="1" parent="q0eAbEq45X-YDv4spNDz-21">
          <mxGeometry y="60" width="181" height="26" as="geometry" />
        </mxCell>
        <mxCell id="q0eAbEq45X-YDv4spNDz-25" value="&lt;font style=&quot;font-size: 14px;&quot;&gt;aep_pompe &lt;/font&gt;&lt;font style=&quot;font-size: 12px;&quot;&gt;&lt;span style=&quot;font-weight: normal;&quot;&gt;(points)&lt;/span&gt;&lt;font&gt;&lt;br&gt;&lt;/font&gt;&lt;/font&gt;" style="swimlane;fontStyle=1;align=center;verticalAlign=top;childLayout=stackLayout;horizontal=1;startSize=26;horizontalStack=0;resizeParent=1;resizeParentMax=0;resizeLast=0;collapsible=1;marginBottom=0;whiteSpace=wrap;html=1;" vertex="1" parent="UiWry4mSf7AiP79Xs2rW-38">
          <mxGeometry x="365" y="888" width="189" height="86" as="geometry" />
        </mxCell>
        <mxCell id="q0eAbEq45X-YDv4spNDz-26" value="c_pompe" style="text;strokeColor=none;fillColor=none;align=left;verticalAlign=top;spacingLeft=4;spacingRight=4;overflow=hidden;rotatable=0;points=[[0,0.5],[1,0.5]];portConstraint=eastwest;whiteSpace=wrap;html=1;" vertex="1" parent="q0eAbEq45X-YDv4spNDz-25">
          <mxGeometry y="26" width="189" height="26" as="geometry" />
        </mxCell>
        <mxCell id="q0eAbEq45X-YDv4spNDz-27" value="" style="line;strokeWidth=1;fillColor=none;align=left;verticalAlign=middle;spacingTop=-1;spacingLeft=3;spacingRight=3;rotatable=0;labelPosition=right;points=[];portConstraint=eastwest;strokeColor=inherit;" vertex="1" parent="q0eAbEq45X-YDv4spNDz-25">
          <mxGeometry y="52" width="189" height="8" as="geometry" />
        </mxCell>
        <mxCell id="q0eAbEq45X-YDv4spNDz-28" value="c_udi" style="text;strokeColor=none;fillColor=none;align=left;verticalAlign=top;spacingLeft=4;spacingRight=4;overflow=hidden;rotatable=0;points=[[0,0.5],[1,0.5]];portConstraint=eastwest;whiteSpace=wrap;html=1;" vertex="1" parent="q0eAbEq45X-YDv4spNDz-25">
          <mxGeometry y="60" width="189" height="26" as="geometry" />
        </mxCell>
        <mxCell id="q0eAbEq45X-YDv4spNDz-29" value="&lt;font style=&quot;font-size: 14px;&quot;&gt;aep_interx &lt;/font&gt;&lt;font style=&quot;font-size: 12px; font-weight: normal;&quot;&gt;(points)&lt;font&gt;&lt;br&gt;&lt;/font&gt;&lt;/font&gt;" style="swimlane;fontStyle=1;align=center;verticalAlign=top;childLayout=stackLayout;horizontal=1;startSize=26;horizontalStack=0;resizeParent=1;resizeParentMax=0;resizeLast=0;collapsible=1;marginBottom=0;whiteSpace=wrap;html=1;" vertex="1" parent="UiWry4mSf7AiP79Xs2rW-38">
          <mxGeometry x="733" y="728" width="185" height="116" as="geometry" />
        </mxCell>
        <mxCell id="q0eAbEq45X-YDv4spNDz-30" value="c_interx" style="text;strokeColor=none;fillColor=none;align=left;verticalAlign=top;spacingLeft=4;spacingRight=4;overflow=hidden;rotatable=0;points=[[0,0.5],[1,0.5]];portConstraint=eastwest;whiteSpace=wrap;html=1;" vertex="1" parent="q0eAbEq45X-YDv4spNDz-29">
          <mxGeometry y="26" width="185" height="22" as="geometry" />
        </mxCell>
        <mxCell id="q0eAbEq45X-YDv4spNDz-31" value="" style="line;strokeWidth=1;fillColor=none;align=left;verticalAlign=middle;spacingTop=-1;spacingLeft=3;spacingRight=3;rotatable=0;labelPosition=right;points=[];portConstraint=eastwest;strokeColor=inherit;" vertex="1" parent="q0eAbEq45X-YDv4spNDz-29">
          <mxGeometry y="48" width="185" height="8" as="geometry" />
        </mxCell>
        <mxCell id="q0eAbEq45X-YDv4spNDz-32" value="c_udi_amont" style="text;strokeColor=none;fillColor=none;align=left;verticalAlign=top;spacingLeft=4;spacingRight=4;overflow=hidden;rotatable=0;points=[[0,0.5],[1,0.5]];portConstraint=eastwest;whiteSpace=wrap;html=1;" vertex="1" parent="q0eAbEq45X-YDv4spNDz-29">
          <mxGeometry y="56" width="185" height="26" as="geometry" />
        </mxCell>
        <mxCell id="q0eAbEq45X-YDv4spNDz-35" value="" style="line;strokeWidth=1;fillColor=none;align=left;verticalAlign=middle;spacingTop=-1;spacingLeft=3;spacingRight=3;rotatable=0;labelPosition=right;points=[];portConstraint=eastwest;strokeColor=inherit;" vertex="1" parent="q0eAbEq45X-YDv4spNDz-29">
          <mxGeometry y="82" width="185" height="8" as="geometry" />
        </mxCell>
        <mxCell id="q0eAbEq45X-YDv4spNDz-33" value="c_udi_aval" style="text;strokeColor=none;fillColor=none;align=left;verticalAlign=top;spacingLeft=4;spacingRight=4;overflow=hidden;rotatable=0;points=[[0,0.5],[1,0.5]];portConstraint=eastwest;whiteSpace=wrap;html=1;" vertex="1" parent="q0eAbEq45X-YDv4spNDz-29">
          <mxGeometry y="90" width="185" height="26" as="geometry" />
        </mxCell>
        <mxCell id="q0eAbEq45X-YDv4spNDz-36" value="" style="edgeStyle=entityRelationEdgeStyle;fontSize=12;html=1;endArrow=ERoneToMany;rounded=0;fontFamily=Helvetica;fontColor=default;" edge="1" parent="UiWry4mSf7AiP79Xs2rW-38" source="UiWry4mSf7AiP79Xs2rW-40" target="q0eAbEq45X-YDv4spNDz-13">
          <mxGeometry width="100" height="100" relative="1" as="geometry">
            <mxPoint x="573" y="501" as="sourcePoint" />
            <mxPoint x="710" y="477" as="targetPoint" />
          </mxGeometry>
        </mxCell>
        <mxCell id="q0eAbEq45X-YDv4spNDz-37" value="" style="edgeStyle=entityRelationEdgeStyle;fontSize=12;html=1;endArrow=ERmandOne;startArrow=ERmandOne;rounded=0;fontFamily=Helvetica;fontColor=default;" edge="1" parent="UiWry4mSf7AiP79Xs2rW-38" source="q0eAbEq45X-YDv4spNDz-9" target="UiWry4mSf7AiP79Xs2rW-78">
          <mxGeometry width="100" height="100" relative="1" as="geometry">
            <mxPoint x="610" y="452" as="sourcePoint" />
            <mxPoint x="710" y="352" as="targetPoint" />
          </mxGeometry>
        </mxCell>
        <mxCell id="q0eAbEq45X-YDv4spNDz-38" value="" style="edgeStyle=entityRelationEdgeStyle;fontSize=12;html=1;endArrow=ERmandOne;startArrow=ERmandOne;rounded=0;fontFamily=Helvetica;fontColor=default;" edge="1" parent="UiWry4mSf7AiP79Xs2rW-38" source="q0eAbEq45X-YDv4spNDz-32" target="UiWry4mSf7AiP79Xs2rW-78">
          <mxGeometry width="100" height="100" relative="1" as="geometry">
            <mxPoint x="610" y="527" as="sourcePoint" />
            <mxPoint x="710" y="427" as="targetPoint" />
          </mxGeometry>
        </mxCell>
        <mxCell id="q0eAbEq45X-YDv4spNDz-39" value="" style="edgeStyle=entityRelationEdgeStyle;fontSize=12;html=1;endArrow=ERmandOne;startArrow=ERmandOne;rounded=0;fontFamily=Helvetica;fontColor=default;" edge="1" parent="UiWry4mSf7AiP79Xs2rW-38" source="q0eAbEq45X-YDv4spNDz-33" target="UiWry4mSf7AiP79Xs2rW-78">
          <mxGeometry width="100" height="100" relative="1" as="geometry">
            <mxPoint x="610" y="677" as="sourcePoint" />
            <mxPoint x="710" y="577" as="targetPoint" />
          </mxGeometry>
        </mxCell>
        <mxCell id="q0eAbEq45X-YDv4spNDz-40" value="" style="edgeStyle=entityRelationEdgeStyle;fontSize=12;html=1;endArrow=ERoneToMany;rounded=0;fontFamily=Helvetica;fontColor=default;" edge="1" parent="UiWry4mSf7AiP79Xs2rW-38" source="UiWry4mSf7AiP79Xs2rW-78" target="q0eAbEq45X-YDv4spNDz-24">
          <mxGeometry width="100" height="100" relative="1" as="geometry">
            <mxPoint x="610" y="527" as="sourcePoint" />
            <mxPoint x="710" y="427" as="targetPoint" />
          </mxGeometry>
        </mxCell>
        <mxCell id="q0eAbEq45X-YDv4spNDz-41" value="" style="edgeStyle=entityRelationEdgeStyle;fontSize=12;html=1;endArrow=ERoneToMany;rounded=0;fontFamily=Helvetica;fontColor=default;" edge="1" parent="UiWry4mSf7AiP79Xs2rW-38" source="UiWry4mSf7AiP79Xs2rW-78" target="q0eAbEq45X-YDv4spNDz-28">
          <mxGeometry width="100" height="100" relative="1" as="geometry">
            <mxPoint x="610" y="702" as="sourcePoint" />
            <mxPoint x="710" y="602" as="targetPoint" />
          </mxGeometry>
        </mxCell>
        <mxCell id="q0eAbEq45X-YDv4spNDz-42" value="" style="edgeStyle=entityRelationEdgeStyle;fontSize=12;html=1;endArrow=ERoneToMany;rounded=0;fontFamily=Helvetica;fontColor=default;" edge="1" parent="UiWry4mSf7AiP79Xs2rW-38" source="UiWry4mSf7AiP79Xs2rW-78" target="q0eAbEq45X-YDv4spNDz-17">
          <mxGeometry width="100" height="100" relative="1" as="geometry">
            <mxPoint x="610" y="777" as="sourcePoint" />
            <mxPoint x="710" y="677" as="targetPoint" />
          </mxGeometry>
        </mxCell>
        <object label="ARS" id="UiWry4mSf7AiP79Xs2rW-73">
          <mxCell parent="0" />
        </object>
        <mxCell id="UiWry4mSf7AiP79Xs2rW-74" value="&lt;h1&gt;&lt;font style=&quot;font-size: 24px;&quot;&gt;&lt;b&gt;ARS&lt;/b&gt;&lt;/font&gt;&lt;/h1&gt;" style="shape=umlFrame;whiteSpace=wrap;html=1;pointerEvents=0;fillColor=#fff2cc;strokeColor=#d6b656;width=90;height=32;" parent="UiWry4mSf7AiP79Xs2rW-73" vertex="1">
          <mxGeometry x="773" y="49" width="478" height="353" as="geometry" />
        </mxCell>
        <mxCell id="UiWry4mSf7AiP79Xs2rW-75" value="&lt;font style=&quot;font-size: 14px;&quot;&gt;&lt;b&gt;aep_capt&lt;/b&gt;&lt;font&gt; &lt;/font&gt;&lt;/font&gt;&lt;font style=&quot;font-size: 12px;&quot;&gt;(points)&lt;font style=&quot;font-size: 12px;&quot;&gt;&lt;br&gt;&lt;/font&gt;&lt;/font&gt;" style="swimlane;fontStyle=0;childLayout=stackLayout;horizontal=1;startSize=26;fillColor=#fff2cc;horizontalStack=0;resizeParent=1;resizeParentMax=0;resizeLast=0;collapsible=1;marginBottom=0;whiteSpace=wrap;html=1;strokeColor=#d6b656;" parent="UiWry4mSf7AiP79Xs2rW-73" vertex="1">
          <mxGeometry x="813" y="90" width="165" height="78" as="geometry" />
        </mxCell>
        <mxCell id="UiWry4mSf7AiP79Xs2rW-76" value="c_captage" style="text;strokeColor=none;fillColor=none;align=left;verticalAlign=top;spacingLeft=4;spacingRight=4;overflow=hidden;rotatable=0;points=[[0,0.5],[1,0.5]];portConstraint=eastwest;whiteSpace=wrap;html=1;" parent="UiWry4mSf7AiP79Xs2rW-75" vertex="1">
          <mxGeometry y="26" width="165" height="26" as="geometry" />
        </mxCell>
        <mxCell id="2uLfHWaX_J8Jc8troCcb-1" value="&lt;div&gt;c_bss&lt;/div&gt;" style="text;strokeColor=none;fillColor=none;align=left;verticalAlign=top;spacingLeft=4;spacingRight=4;overflow=hidden;rotatable=0;points=[[0,0.5],[1,0.5]];portConstraint=eastwest;whiteSpace=wrap;html=1;" parent="UiWry4mSf7AiP79Xs2rW-75" vertex="1">
          <mxGeometry y="52" width="165" height="26" as="geometry" />
        </mxCell>
        <mxCell id="UiWry4mSf7AiP79Xs2rW-77" value="&lt;font style=&quot;font-size: 14px;&quot;&gt;&lt;b&gt;aep_udi&lt;font style=&quot;font-size: 14px;&quot;&gt; &lt;/font&gt;&lt;/b&gt;&lt;/font&gt;&lt;font style=&quot;font-size: 12px;&quot;&gt;(polygones)&lt;font style=&quot;font-size: 12px;&quot;&gt;&lt;br&gt;&lt;/font&gt;&lt;/font&gt;" style="swimlane;fontStyle=0;childLayout=stackLayout;horizontal=1;startSize=26;fillColor=#fff2cc;horizontalStack=0;resizeParent=1;resizeParentMax=0;resizeLast=0;collapsible=1;marginBottom=0;whiteSpace=wrap;html=1;strokeColor=#d6b656;" parent="UiWry4mSf7AiP79Xs2rW-73" vertex="1">
          <mxGeometry x="813" y="174" width="167" height="104" as="geometry" />
        </mxCell>
        <mxCell id="UiWry4mSf7AiP79Xs2rW-78" value="c_udi" style="text;strokeColor=none;fillColor=none;align=left;verticalAlign=top;spacingLeft=4;spacingRight=4;overflow=hidden;rotatable=0;points=[[0,0.5],[1,0.5]];portConstraint=eastwest;whiteSpace=wrap;html=1;" parent="UiWry4mSf7AiP79Xs2rW-77" vertex="1">
          <mxGeometry y="26" width="167" height="26" as="geometry" />
        </mxCell>
        <mxCell id="UiWry4mSf7AiP79Xs2rW-80" value="&lt;div&gt;c_sispea_eg&lt;/div&gt;&lt;div&gt;&lt;br&gt;&lt;/div&gt;" style="text;strokeColor=none;fillColor=none;align=left;verticalAlign=top;spacingLeft=4;spacingRight=4;overflow=hidden;rotatable=0;points=[[0,0.5],[1,0.5]];portConstraint=eastwest;whiteSpace=wrap;html=1;" parent="UiWry4mSf7AiP79Xs2rW-77" vertex="1">
          <mxGeometry y="52" width="167" height="26" as="geometry" />
        </mxCell>
        <mxCell id="q0eAbEq45X-YDv4spNDz-18" value="&lt;div&gt;c_sispea_coll&lt;/div&gt;&lt;div&gt;&lt;br&gt;&lt;/div&gt;" style="text;strokeColor=none;fillColor=none;align=left;verticalAlign=top;spacingLeft=4;spacingRight=4;overflow=hidden;rotatable=0;points=[[0,0.5],[1,0.5]];portConstraint=eastwest;whiteSpace=wrap;html=1;" vertex="1" parent="UiWry4mSf7AiP79Xs2rW-77">
          <mxGeometry y="78" width="167" height="26" as="geometry" />
        </mxCell>
        <mxCell id="UiWry4mSf7AiP79Xs2rW-81" value="&lt;font style=&quot;font-size: 13px;&quot;&gt;Liens catpages udi &lt;span style=&quot;font-weight: normal;&quot;&gt;(lignes)&lt;/span&gt;&lt;br&gt;&lt;/font&gt;" style="swimlane;fontStyle=1;align=center;verticalAlign=top;childLayout=stackLayout;horizontal=1;startSize=26;horizontalStack=0;resizeParent=1;resizeParentMax=0;resizeLast=0;collapsible=1;marginBottom=0;whiteSpace=wrap;html=1;fillColor=#fff2cc;strokeColor=#d6b656;" parent="UiWry4mSf7AiP79Xs2rW-73" vertex="1">
          <mxGeometry x="1042" y="119.99999999999999" width="200" height="86" as="geometry" />
        </mxCell>
        <mxCell id="UiWry4mSf7AiP79Xs2rW-84" value="&lt;div&gt;c_captage&lt;/div&gt;&lt;div&gt;&lt;br&gt;&lt;/div&gt;" style="text;strokeColor=none;fillColor=none;align=left;verticalAlign=top;spacingLeft=4;spacingRight=4;overflow=hidden;rotatable=0;points=[[0,0.5],[1,0.5]];portConstraint=eastwest;whiteSpace=wrap;html=1;" parent="UiWry4mSf7AiP79Xs2rW-81" vertex="1">
          <mxGeometry y="26" width="200" height="26" as="geometry" />
        </mxCell>
        <mxCell id="UiWry4mSf7AiP79Xs2rW-82" value="c_udi" style="text;strokeColor=none;fillColor=none;align=left;verticalAlign=top;spacingLeft=4;spacingRight=4;overflow=hidden;rotatable=0;points=[[0,0.5],[1,0.5]];portConstraint=eastwest;whiteSpace=wrap;html=1;" parent="UiWry4mSf7AiP79Xs2rW-81" vertex="1">
          <mxGeometry y="52" width="200" height="26" as="geometry" />
        </mxCell>
        <mxCell id="UiWry4mSf7AiP79Xs2rW-83" value="" style="line;strokeWidth=1;fillColor=none;align=left;verticalAlign=middle;spacingTop=-1;spacingLeft=3;spacingRight=3;rotatable=0;labelPosition=right;points=[];portConstraint=eastwest;strokeColor=inherit;" parent="UiWry4mSf7AiP79Xs2rW-81" vertex="1">
          <mxGeometry y="78" width="200" height="8" as="geometry" />
        </mxCell>
        <mxCell id="UiWry4mSf7AiP79Xs2rW-85" value="" style="edgeStyle=entityRelationEdgeStyle;fontSize=12;html=1;endArrow=ERmandOne;startArrow=ERmandOne;rounded=0;" parent="UiWry4mSf7AiP79Xs2rW-73" source="UiWry4mSf7AiP79Xs2rW-76" target="UiWry4mSf7AiP79Xs2rW-84" edge="1">
          <mxGeometry width="100" height="100" relative="1" as="geometry">
            <mxPoint x="810" y="380" as="sourcePoint" />
            <mxPoint x="910" y="280" as="targetPoint" />
          </mxGeometry>
        </mxCell>
        <mxCell id="UiWry4mSf7AiP79Xs2rW-86" value="" style="edgeStyle=entityRelationEdgeStyle;fontSize=12;html=1;endArrow=ERmandOne;startArrow=ERmandOne;rounded=0;" parent="UiWry4mSf7AiP79Xs2rW-73" source="UiWry4mSf7AiP79Xs2rW-78" target="UiWry4mSf7AiP79Xs2rW-82" edge="1">
          <mxGeometry width="100" height="100" relative="1" as="geometry">
            <mxPoint x="810" y="380" as="sourcePoint" />
            <mxPoint x="910" y="280" as="targetPoint" />
          </mxGeometry>
        </mxCell>
        <mxCell id="UiWry4mSf7AiP79Xs2rW-87" value="" style="edgeStyle=entityRelationEdgeStyle;fontSize=12;html=1;endArrow=ERzeroToMany;endFill=1;rounded=0;" parent="UiWry4mSf7AiP79Xs2rW-73" source="UiWry4mSf7AiP79Xs2rW-50" target="UiWry4mSf7AiP79Xs2rW-76" edge="1">
          <mxGeometry width="100" height="100" relative="1" as="geometry">
            <mxPoint x="790" y="390" as="sourcePoint" />
            <mxPoint x="890" y="290" as="targetPoint" />
          </mxGeometry>
        </mxCell>
        <object label="MDO Sandre" id="UiWry4mSf7AiP79Xs2rW-88">
          <mxCell parent="0" />
        </object>
        <mxCell id="q0eAbEq45X-YDv4spNDz-3" value="" style="group" vertex="1" connectable="0" parent="UiWry4mSf7AiP79Xs2rW-88">
          <mxGeometry x="47" y="337" width="440" height="280" as="geometry" />
        </mxCell>
        <mxCell id="UiWry4mSf7AiP79Xs2rW-89" value="&lt;h1&gt;&lt;b&gt;SANDRE&lt;/b&gt;&lt;/h1&gt;" style="shape=umlFrame;whiteSpace=wrap;html=1;pointerEvents=0;fillColor=#e1d5e7;strokeColor=#9673a6;width=131;height=36;" parent="q0eAbEq45X-YDv4spNDz-3" vertex="1">
          <mxGeometry width="440" height="280" as="geometry" />
        </mxCell>
        <mxCell id="UiWry4mSf7AiP79Xs2rW-90" value="&lt;font style=&quot;font-size: 13px;&quot;&gt;mdo_ce &lt;/font&gt;&lt;font style=&quot;font-size: 12px;&quot;&gt;&lt;span style=&quot;font-weight: normal;&quot;&gt;(polylignes)&lt;/span&gt;&lt;font style=&quot;font-size: 12px;&quot;&gt;&lt;br&gt;&lt;/font&gt;&lt;/font&gt;" style="swimlane;fontStyle=1;align=center;verticalAlign=top;childLayout=stackLayout;horizontal=1;startSize=26;horizontalStack=0;resizeParent=1;resizeParentMax=0;resizeLast=0;collapsible=1;marginBottom=0;whiteSpace=wrap;html=1;fillColor=#e1d5e7;strokeColor=#9673a6;" parent="q0eAbEq45X-YDv4spNDz-3" vertex="1">
          <mxGeometry x="36" y="47" width="160" height="86" as="geometry" />
        </mxCell>
        <mxCell id="UiWry4mSf7AiP79Xs2rW-91" value="c_eu_me" style="text;strokeColor=none;fillColor=none;align=left;verticalAlign=top;spacingLeft=4;spacingRight=4;overflow=hidden;rotatable=0;points=[[0,0.5],[1,0.5]];portConstraint=eastwest;whiteSpace=wrap;html=1;" parent="UiWry4mSf7AiP79Xs2rW-90" vertex="1">
          <mxGeometry y="26" width="160" height="26" as="geometry" />
        </mxCell>
        <mxCell id="UiWry4mSf7AiP79Xs2rW-92" value="" style="line;strokeWidth=1;fillColor=none;align=left;verticalAlign=middle;spacingTop=-1;spacingLeft=3;spacingRight=3;rotatable=0;labelPosition=right;points=[];portConstraint=eastwest;strokeColor=inherit;" parent="UiWry4mSf7AiP79Xs2rW-90" vertex="1">
          <mxGeometry y="52" width="160" height="8" as="geometry" />
        </mxCell>
        <mxCell id="UiWry4mSf7AiP79Xs2rW-93" value="&lt;div&gt;c_fr_me&lt;/div&gt;" style="text;strokeColor=none;fillColor=none;align=left;verticalAlign=top;spacingLeft=4;spacingRight=4;overflow=hidden;rotatable=0;points=[[0,0.5],[1,0.5]];portConstraint=eastwest;whiteSpace=wrap;html=1;" parent="UiWry4mSf7AiP79Xs2rW-90" vertex="1">
          <mxGeometry y="60" width="160" height="26" as="geometry" />
        </mxCell>
        <mxCell id="UiWry4mSf7AiP79Xs2rW-94" value="&lt;font style=&quot;font-size: 13px;&quot;&gt;mdo_bv &lt;/font&gt;&lt;font size=&quot;1&quot;&gt;&lt;span style=&quot;font-weight: normal; font-size: 12px;&quot;&gt;(polygones)&lt;/span&gt;&lt;font&gt;&lt;br&gt;&lt;/font&gt;&lt;/font&gt;" style="swimlane;fontStyle=1;align=center;verticalAlign=top;childLayout=stackLayout;horizontal=1;startSize=26;horizontalStack=0;resizeParent=1;resizeParentMax=0;resizeLast=0;collapsible=1;marginBottom=0;whiteSpace=wrap;html=1;fillColor=#e1d5e7;strokeColor=#9673a6;" parent="q0eAbEq45X-YDv4spNDz-3" vertex="1">
          <mxGeometry x="236" y="47" width="160" height="86" as="geometry" />
        </mxCell>
        <mxCell id="UiWry4mSf7AiP79Xs2rW-95" value="c_eu_me" style="text;strokeColor=none;fillColor=none;align=left;verticalAlign=top;spacingLeft=4;spacingRight=4;overflow=hidden;rotatable=0;points=[[0,0.5],[1,0.5]];portConstraint=eastwest;whiteSpace=wrap;html=1;" parent="UiWry4mSf7AiP79Xs2rW-94" vertex="1">
          <mxGeometry y="26" width="160" height="26" as="geometry" />
        </mxCell>
        <mxCell id="UiWry4mSf7AiP79Xs2rW-96" value="" style="line;strokeWidth=1;fillColor=none;align=left;verticalAlign=middle;spacingTop=-1;spacingLeft=3;spacingRight=3;rotatable=0;labelPosition=right;points=[];portConstraint=eastwest;strokeColor=inherit;" parent="UiWry4mSf7AiP79Xs2rW-94" vertex="1">
          <mxGeometry y="52" width="160" height="8" as="geometry" />
        </mxCell>
        <mxCell id="UiWry4mSf7AiP79Xs2rW-97" value="&lt;div&gt;c_fr_me&lt;/div&gt;" style="text;strokeColor=none;fillColor=none;align=left;verticalAlign=top;spacingLeft=4;spacingRight=4;overflow=hidden;rotatable=0;points=[[0,0.5],[1,0.5]];portConstraint=eastwest;whiteSpace=wrap;html=1;" parent="UiWry4mSf7AiP79Xs2rW-94" vertex="1">
          <mxGeometry y="60" width="160" height="26" as="geometry" />
        </mxCell>
        <mxCell id="UiWry4mSf7AiP79Xs2rW-98" value="&lt;font style=&quot;font-size: 13px;&quot;&gt;mdo_pe &lt;/font&gt;&lt;font size=&quot;1&quot;&gt;&lt;span style=&quot;font-weight: normal; font-size: 12px;&quot;&gt;(polygones)&lt;/span&gt;&lt;font&gt;&lt;br&gt;&lt;/font&gt;&lt;/font&gt;" style="swimlane;fontStyle=1;align=center;verticalAlign=top;childLayout=stackLayout;horizontal=1;startSize=26;horizontalStack=0;resizeParent=1;resizeParentMax=0;resizeLast=0;collapsible=1;marginBottom=0;whiteSpace=wrap;html=1;fillColor=#e1d5e7;strokeColor=#9673a6;" parent="q0eAbEq45X-YDv4spNDz-3" vertex="1">
          <mxGeometry x="36" y="167" width="160" height="86" as="geometry" />
        </mxCell>
        <mxCell id="UiWry4mSf7AiP79Xs2rW-99" value="c_eu_me" style="text;strokeColor=none;fillColor=none;align=left;verticalAlign=top;spacingLeft=4;spacingRight=4;overflow=hidden;rotatable=0;points=[[0,0.5],[1,0.5]];portConstraint=eastwest;whiteSpace=wrap;html=1;" parent="UiWry4mSf7AiP79Xs2rW-98" vertex="1">
          <mxGeometry y="26" width="160" height="26" as="geometry" />
        </mxCell>
        <mxCell id="UiWry4mSf7AiP79Xs2rW-100" value="" style="line;strokeWidth=1;fillColor=none;align=left;verticalAlign=middle;spacingTop=-1;spacingLeft=3;spacingRight=3;rotatable=0;labelPosition=right;points=[];portConstraint=eastwest;strokeColor=inherit;" parent="UiWry4mSf7AiP79Xs2rW-98" vertex="1">
          <mxGeometry y="52" width="160" height="8" as="geometry" />
        </mxCell>
        <mxCell id="UiWry4mSf7AiP79Xs2rW-101" value="&lt;div&gt;c_fr_me&lt;/div&gt;" style="text;strokeColor=none;fillColor=none;align=left;verticalAlign=top;spacingLeft=4;spacingRight=4;overflow=hidden;rotatable=0;points=[[0,0.5],[1,0.5]];portConstraint=eastwest;whiteSpace=wrap;html=1;" parent="UiWry4mSf7AiP79Xs2rW-98" vertex="1">
          <mxGeometry y="60" width="160" height="26" as="geometry" />
        </mxCell>
        <mxCell id="UiWry4mSf7AiP79Xs2rW-102" value="&lt;font style=&quot;font-size: 13px;&quot;&gt;mdo_es &lt;/font&gt;&lt;font size=&quot;1&quot;&gt;&lt;span style=&quot;font-weight: normal; font-size: 12px;&quot;&gt;(polygones)&lt;/span&gt;&lt;font&gt;&lt;br&gt;&lt;/font&gt;&lt;/font&gt;" style="swimlane;fontStyle=1;align=center;verticalAlign=top;childLayout=stackLayout;horizontal=1;startSize=26;horizontalStack=0;resizeParent=1;resizeParentMax=0;resizeLast=0;collapsible=1;marginBottom=0;whiteSpace=wrap;html=1;fillColor=#e1d5e7;strokeColor=#9673a6;" parent="q0eAbEq45X-YDv4spNDz-3" vertex="1">
          <mxGeometry x="236" y="167" width="160" height="86" as="geometry" />
        </mxCell>
        <mxCell id="UiWry4mSf7AiP79Xs2rW-103" value="c_eu_me" style="text;strokeColor=none;fillColor=none;align=left;verticalAlign=top;spacingLeft=4;spacingRight=4;overflow=hidden;rotatable=0;points=[[0,0.5],[1,0.5]];portConstraint=eastwest;whiteSpace=wrap;html=1;" parent="UiWry4mSf7AiP79Xs2rW-102" vertex="1">
          <mxGeometry y="26" width="160" height="26" as="geometry" />
        </mxCell>
        <mxCell id="UiWry4mSf7AiP79Xs2rW-104" value="" style="line;strokeWidth=1;fillColor=none;align=left;verticalAlign=middle;spacingTop=-1;spacingLeft=3;spacingRight=3;rotatable=0;labelPosition=right;points=[];portConstraint=eastwest;strokeColor=inherit;" parent="UiWry4mSf7AiP79Xs2rW-102" vertex="1">
          <mxGeometry y="52" width="160" height="8" as="geometry" />
        </mxCell>
        <mxCell id="UiWry4mSf7AiP79Xs2rW-105" value="&lt;div&gt;c_fr_me&lt;/div&gt;" style="text;strokeColor=none;fillColor=none;align=left;verticalAlign=top;spacingLeft=4;spacingRight=4;overflow=hidden;rotatable=0;points=[[0,0.5],[1,0.5]];portConstraint=eastwest;whiteSpace=wrap;html=1;" parent="UiWry4mSf7AiP79Xs2rW-102" vertex="1">
          <mxGeometry y="60" width="160" height="26" as="geometry" />
        </mxCell>
        <object label="MINISTERE" id="UiWry4mSf7AiP79Xs2rW-106">
          <mxCell parent="0" />
        </object>
        <object label="BSS" id="yYNXpB2N-dPXlD8TsNwt-2">
          <mxCell parent="0" />
        </object>
        <mxCell id="yYNXpB2N-dPXlD8TsNwt-3" value="&lt;b&gt;BSS&lt;/b&gt;" style="shape=umlFrame;whiteSpace=wrap;html=1;pointerEvents=0;fillColor=#a0522d;fontColor=#ffffff;strokeColor=#6D1F00;" parent="yYNXpB2N-dPXlD8TsNwt-2" vertex="1">
          <mxGeometry x="778" y="505" width="249.15" height="130.29" as="geometry" />
        </mxCell>
        <mxCell id="yYNXpB2N-dPXlD8TsNwt-4" value="&lt;font style=&quot;font-size: 14px;&quot;&gt;bss_os &lt;/font&gt;&lt;font style=&quot;font-size: 12px;&quot;&gt;&lt;span style=&quot;font-weight: normal;&quot;&gt;(points)&lt;/span&gt;&lt;/font&gt;" style="swimlane;fontStyle=1;align=center;verticalAlign=top;childLayout=stackLayout;horizontal=1;startSize=26;horizontalStack=0;resizeParent=1;resizeParentMax=0;resizeLast=0;collapsible=1;marginBottom=0;whiteSpace=wrap;html=1;fillColor=#a0522d;fontColor=#ffffff;strokeColor=#6D1F00;" parent="yYNXpB2N-dPXlD8TsNwt-2" vertex="1">
          <mxGeometry x="809.15" y="541.29" width="193" height="61.11607142857142" as="geometry" />
        </mxCell>
        <mxCell id="yYNXpB2N-dPXlD8TsNwt-5" value="c_bss" style="text;strokeColor=none;fillColor=none;align=left;verticalAlign=top;spacingLeft=4;spacingRight=4;overflow=hidden;rotatable=0;points=[[0,0.5],[1,0.5]];portConstraint=eastwest;whiteSpace=wrap;html=1;" parent="yYNXpB2N-dPXlD8TsNwt-4" vertex="1">
          <mxGeometry y="26" width="193" height="22.229999999999997" as="geometry" />
        </mxCell>
        <mxCell id="yYNXpB2N-dPXlD8TsNwt-6" value="" style="line;strokeWidth=1;fillColor=none;align=left;verticalAlign=middle;spacingTop=-1;spacingLeft=3;spacingRight=3;rotatable=0;labelPosition=right;points=[];portConstraint=eastwest;strokeColor=inherit;" parent="yYNXpB2N-dPXlD8TsNwt-4" vertex="1">
          <mxGeometry y="48.23" width="193" height="12.886071428571428" as="geometry" />
        </mxCell>
      </root>
    </mxGraphModel>
  </diagram>
</mxfile>
